# xmcd
#
# Track frame offsets: 
#        150
#        18973
#        40393
#        56137
#        71775
#        88315
#        102429
#        124960
#        140347
#        157344
#        168841
#        188257
#
# Disc length: 2809 seconds
#
# Revision: 6
# Processed by: cddbd v1.5.2PL0 Copyright (c) Steve Scherf et al.
# Submitted via: ExactAudioCopy v1.0b4
#
DISCID=aa0af70c
DTITLE=Various Artist - Bossa n' Marley
DYEAR=2008
DGENRE=Samba
TTITLE0=Amazonics - Redemption Song
TTITLE1=Urban Love feat. Astrud C and Moana - No Woman No Cry
TTITLE2=Freedom Dub - Buffalo Soldier (The Trumak Remix)
TTITLE3=Sao Vincente feat. Marlene - I Shot The Sheriff
TTITLE4=Michelle Simonal - Stir It Up
TTITLE5=Trippynova - Sun Is Shining (Shiny Remix)
TTITLE6=Dual Sessons - Positive Vibration (+ Mix)
TTITLE7=Groove da Praia - Is This Love
TTITLE8=Sawa - Get Up Stand Up
TTITLE9=Anakelly - One Love (Caipora Mix)
TTITLE10=Banda do Sul feat. Sawa - Could You Be Loved (Bahian Roots Re
TTITLE10=mix)
TTITLE11=Ituana - Waiting In Vain
EXTD=YEAR: 2005
EXTT0=
EXTT1=
EXTT2=
EXTT3=
EXTT4=
EXTT5=
EXTT6=
EXTT7=
EXTT8=
EXTT9=
EXTT10=
EXTT11=
PLAYORDER=
